<svg width="35" height="35" viewBox="0 0 35 35" fill="none" xmlns="http://www.w3.org/2000/svg">
<path d="M31.5665 1.08008H27.2182C25.8765 1.08008 24.7888 2.13908 24.7888 3.44551V7.67924C24.7888 8.98566 25.8765 10.0447 27.2182 10.0447H31.5665C32.9083 10.0447 33.9961 8.98566 33.9961 7.67924V3.44551C33.9961 2.13908 32.9083 1.08008 31.5665 1.08008Z" fill="#FD695A"/>
<path d="M14.5382 10.2971H18.3566C19.9366 10.3845 21.4397 10.9906 22.6205 12.0166L22.7637 12.1715C23.8229 13.3178 24.4462 14.7832 24.5297 16.3231V20.0253C24.5297 20.6703 24.7928 21.2889 25.2613 21.745C25.7297 22.2011 26.3651 22.4574 27.0276 22.4574H31.4983C32.1607 22.4574 32.7961 22.2011 33.2645 21.745C33.733 21.2889 33.9962 20.6703 33.9962 20.0253V15.6724C33.9962 15.0274 33.733 14.4088 33.2645 13.9527C32.7961 13.4966 32.1607 13.2404 31.4983 13.2404H27.6958C26.1143 13.1591 24.6093 12.5522 23.4319 11.5209L23.2728 11.3815C22.2169 10.2331 21.5941 8.76894 21.5068 7.22991V3.51212C21.5068 2.86715 21.2437 2.24852 20.7752 1.79243C20.3067 1.33633 19.6714 1.08008 19.0089 1.08008H14.5382C13.8757 1.08008 13.2404 1.33633 12.772 1.79243C12.3035 2.24852 12.0403 2.86715 12.0403 3.51212V7.86509C12.0403 8.51007 12.3035 9.12863 12.772 9.58472C13.2404 10.0408 13.8757 10.2971 14.5382 10.2971Z" fill="#FD695A"/>
<path d="M32.2142 25.5378H28.4317C26.8572 25.4383 25.3654 24.8023 24.2079 23.7371L23.7824 23.3144C22.7332 22.1556 22.1157 20.6744 22.033 19.1179V15.3599C22.0289 14.7092 21.7669 14.0863 21.3037 13.6261C20.8405 13.166 20.2136 12.9056 19.5586 12.9016H15.7761C14.2146 12.8363 12.7232 12.2392 11.5524 11.2105L11.1269 10.7877C10.0776 9.62899 9.46013 8.14775 9.37741 6.59128V2.84901C9.37741 2.197 9.1167 1.57169 8.65272 1.11063C8.18868 0.649636 7.55932 0.390625 6.90306 0.390625H2.47435C1.81816 0.390625 1.18873 0.649636 0.724755 1.11063C0.260708 1.57169 0 2.197 0 2.84901V7.24894C0 7.90095 0.260708 8.52627 0.724755 8.98726C1.18873 9.44832 1.81816 9.70733 2.47435 9.70733H6.24112C7.83165 9.7796 9.34731 10.3996 10.528 11.461L10.9535 11.8838C11.9994 13.0446 12.6164 14.5246 12.7029 16.0802V19.8382C12.707 20.4889 12.969 21.1118 13.4322 21.5719C13.8953 22.0321 14.5223 22.2924 15.1772 22.2966H18.9597C20.509 22.3929 21.9803 23.0052 23.1363 24.0346L23.5618 24.4574C24.6077 25.6182 25.2247 27.0982 25.3112 28.6538V32.4118C25.3153 33.0626 25.5773 33.6854 26.0405 34.1456C26.5036 34.6057 27.1306 34.866 27.7855 34.8701H32.23C32.885 34.866 33.512 34.6057 33.9751 34.1456C34.4382 33.6854 34.7003 33.0626 34.7044 32.4118V27.9961C34.7002 27.3428 34.436 26.7174 33.9695 26.2569C33.503 25.7963 32.8719 25.5378 32.2142 25.5378Z" fill="#FD695A"/>
<path d="M7.29917 25.2158H2.61635C1.17138 25.2158 0 26.2749 0 27.5813V31.8151C0 33.1215 1.17138 34.1805 2.61635 34.1805H7.29917C8.74414 34.1805 9.91552 33.1215 9.91552 31.8151V27.5813C9.91552 26.2749 8.74414 25.2158 7.29917 25.2158Z" fill="#FD695A"/>
<path d="M19.458 24.9637H15.6554C14.074 24.8824 12.5689 24.2755 11.3915 23.2443L11.2325 23.1048C10.1699 21.9483 9.54661 20.4721 9.46644 18.9223V15.2045C9.45858 14.5781 9.20276 13.9788 8.75224 13.5315C8.30172 13.0842 7.69127 12.8234 7.04811 12.8035H2.49787C1.83537 12.8035 1.20006 13.0597 0.731624 13.5158C0.263185 13.9719 0 14.5905 0 15.2355V19.5884C0 20.2334 0.263185 20.852 0.731624 21.3082C1.20006 21.7643 1.83537 22.0204 2.49787 22.0204H6.31627C7.89631 22.1079 9.39937 22.714 10.5802 23.7399L10.7234 23.8948C11.7826 25.0412 12.4059 26.5066 12.4893 28.0463V31.7486C12.4893 32.0693 12.5545 32.3868 12.681 32.6829C12.8076 32.979 12.993 33.2478 13.2266 33.4738C13.4602 33.6999 13.7375 33.8787 14.0424 34C14.3473 34.1213 14.6738 34.1827 15.0031 34.1807H19.458C20.1204 34.1807 20.7558 33.9245 21.2242 33.4684C21.6927 33.0123 21.9558 32.3937 21.9558 31.7486V27.3957C21.9558 26.7507 21.6927 26.1321 21.2242 25.676C20.7558 25.2199 20.1204 24.9637 19.458 24.9637Z" fill="#FD695A"/>
</svg>
